<svg width="590" height="200" viewBox="0 0 590 200" fill="none" xmlns="http://www.w3.org/2000/svg">
<g opacity="0.1">
<circle cx="50" cy="149.985" r="49.5" stroke="black"/>
<circle cx="60" cy="148.988" r="49.5" stroke="black"/>
<circle cx="70" cy="146.038" r="49.5" stroke="black"/>
<circle cx="80" cy="141.251" r="49.5" stroke="black"/>
<circle cx="90" cy="134.82" r="49.5" stroke="black"/>
<circle cx="100" cy="127" r="49.5" stroke="black"/>
<circle cx="110" cy="118.103" r="49.5" stroke="black"/>
<circle cx="120" cy="108.483" r="49.5" stroke="black"/>
<circle cx="130" cy="98.5247" r="49.5" stroke="black"/>
<circle cx="140" cy="88.6245" r="49.5" stroke="black"/>
<circle cx="150" cy="79.1773" r="49.5" stroke="black"/>
<circle cx="160" cy="70.5596" r="49.5" stroke="black"/>
<circle cx="170" cy="63.115" r="49.5" stroke="black"/>
<circle cx="180" cy="57.1402" r="49.5" stroke="black"/>
<circle cx="190" cy="52.8735" r="49.5" stroke="black"/>
<circle cx="200" cy="50.485" r="49.5" stroke="black"/>
<circle cx="210" cy="50.0699" r="49.5" stroke="black"/>
<circle cx="220" cy="51.6447" r="49.5" stroke="black"/>
<circle cx="230" cy="55.1467" r="49.5" stroke="black"/>
<circle cx="240" cy="60.4363" r="49.5" stroke="black"/>
<circle cx="250" cy="67.3025" r="49.5" stroke="black"/>
<circle cx="260" cy="75.4716" r="49.5" stroke="black"/>
<circle cx="270" cy="84.618" r="49.5" stroke="black"/>
<circle cx="280" cy="94.377" r="49.5" stroke="black"/>
<circle cx="290" cy="104.36" r="49.5" stroke="black"/>
<circle cx="300" cy="114.168" r="49.5" stroke="black"/>
<circle cx="310" cy="123.41" r="49.5" stroke="black"/>
<circle cx="320" cy="131.719" r="49.5" stroke="black"/>
<circle cx="330" cy="138.763" r="49.5" stroke="black"/>
<circle cx="340" cy="144.261" r="49.5" stroke="black"/>
<circle cx="350" cy="147.993" r="49.5" stroke="black"/>
<circle cx="360" cy="149.812" r="49.5" stroke="black"/>
<circle cx="370" cy="149.644" r="49.5" stroke="black"/>
<circle cx="380" cy="147.496" r="49.5" stroke="black"/>
<circle cx="390" cy="143.455" r="49.5" stroke="black"/>
<circle cx="400" cy="137.68" r="49.5" stroke="black"/>
<circle cx="410" cy="130.402" r="49.5" stroke="black"/>
<circle cx="420" cy="121.912" r="49.5" stroke="black"/>
<circle cx="430" cy="112.548" r="49.5" stroke="black"/>
<circle cx="440" cy="102.682" r="49.5" stroke="black"/>
<circle cx="450" cy="92.7097" r="49.5" stroke="black"/>
<circle cx="460" cy="83.0269" r="49.5" stroke="black"/>
<circle cx="470" cy="74.0202" r="49.5" stroke="black"/>
<circle cx="480" cy="66.0486" r="49.5" stroke="black"/>
<circle cx="490" cy="59.43" r="49.5" stroke="black"/>
<circle cx="500" cy="54.4281" r="49.5" stroke="black"/>
<circle cx="510" cy="51.2425" r="49.5" stroke="black"/>
<circle cx="520" cy="50" r="49.5" stroke="black"/>
<circle cx="530" cy="50.7502" r="49.5" stroke="black"/>
<circle cx="540" cy="53.4633" r="49.5" stroke="black"/>
</g>
</svg>
